<?xml version="1.0" encoding="iso-8859-1"?>
<!-- Generator: Adobe Illustrator 19.0.0, SVG Export Plug-In . SVG Version: 6.00 Build 0)  -->
<svg version="1.1" id="Layer_1" xmlns="http://www.w3.org/2000/svg" xmlns:xlink="http://www.w3.org/1999/xlink" x="0px" y="0px"
	 viewBox="0 0 297 297" style="enable-background:new 0 0 297 297;" xml:space="preserve">
<g>
	<g>
		<g>
			<path d="M162.52,204.294c-0.492-2.166-2.033-3.942-4.108-4.734l-37.598-14.358c-2.304-0.879-4.909-0.409-6.761,1.222
				c-1.851,1.632-2.644,4.157-2.06,6.554l5.373,22.041c-36.472-15.942-54.565-57.648-40.429-94.735
				c4.3-11.286,11.35-21.431,20.386-29.339c8.974-7.854,10.46-21.027,3.458-30.639c-3.764-5.167-9.567-8.54-15.922-9.251
				c-6.351-0.709-12.733,1.288-17.534,5.485c-14.782,12.921-26.27,29.528-33.221,48.026c-22.653,60.266,7.52,128.056,67.353,152.651
				l-19.116,13.337c-2.017,1.408-3.092,3.814-2.792,6.256c0.299,2.442,1.924,4.518,4.222,5.395l37.598,14.358
				c0.767,0.293,1.569,0.437,2.368,0.437c1.361,0,2.709-0.418,3.849-1.228l44.351-31.529c2.185-1.553,3.222-4.268,2.628-6.883
				L162.52,204.294z"/>
			<path d="M195.543,39.782l19.116-13.336c2.017-1.408,3.092-3.814,2.792-6.256c-0.299-2.442-1.924-4.518-4.222-5.395L175.63,0.438
				c-2.075-0.794-4.408-0.495-6.217,0.791l-44.351,31.53c-2.185,1.554-3.222,4.268-2.628,6.882l12.046,53.066
				c0.492,2.166,2.032,3.942,4.108,4.734l37.599,14.358c2.307,0.879,4.91,0.41,6.761-1.222c1.851-1.632,2.644-4.157,2.06-6.554
				l-5.373-22.041c36.472,15.942,54.565,57.648,40.429,94.735c-4.3,11.286-11.35,21.431-20.385,29.338
				c-8.975,7.853-10.462,21.025-3.46,30.639c3.765,5.168,9.569,8.541,15.925,9.252c0.841,0.094,1.682,0.141,2.522,0.141
				c5.486-0.001,10.846-1.988,15.007-5.626c14.783-12.92,26.271-29.527,33.223-48.025
				C285.548,132.168,255.374,64.378,195.543,39.782z"/>
		</g>
	</g>
</g>
<g>
</g>
<g>
</g>
<g>
</g>
<g>
</g>
<g>
</g>
<g>
</g>
<g>
</g>
<g>
</g>
<g>
</g>
<g>
</g>
<g>
</g>
<g>
</g>
<g>
</g>
<g>
</g>
<g>
</g>
</svg>
